<?xml version="1.0" standalone="no"?><!DOCTYPE svg PUBLIC "-//W3C//DTD SVG 1.1//EN" "http://www.w3.org/Graphics/SVG/1.1/DTD/svg11.dtd"><svg t="1593050277618" class="icon" viewBox="0 0 1025 1024" version="1.1" xmlns="http://www.w3.org/2000/svg" p-id="1885" xmlns:xlink="http://www.w3.org/1999/xlink" width="200.1953125" height="200"><defs><style type="text/css"></style></defs><path d="M925.794206 1.022977h-826.565435C45.215584 1.022977 1.022977 45.215584 1.022977 99.228771v826.565435c0 54.013187 44.192607 98.205794 98.205794 98.205794h826.565435c54.013187 0 98.205794-44.192607 98.205794-98.205794v-826.565435c0-54.013187-44.192607-98.205794-98.205794-98.205794zM157.986525 232.354909c0-42.255089 20.838042-63.383656 62.538678-63.383656h161.41759c42.255089 0 63.383656 21.128567 63.383657 63.383656v478.335872c0 19.729135-10.141794 29.580404-30.425383 29.580404-19.727089 0-29.578358-9.851269-29.578358-29.580404V258.553351c0-19.714813-9.863544-29.580404-29.580403-29.580404h-109.018662c-19.727089 0-29.578358 9.863544-29.578357 29.580404v452.13743c0 19.729135-9.863544 29.580404-29.580404 29.580404-19.727089 0-29.578358-9.851269-29.578358-29.580404V232.354909z m32.958274 646.515341c-9.587341 9.004244-18.315381 13.52171-26.198441 13.52171-19.16036-2.827508-30.423337-11.555548-33.805299-26.198442 0.554454-10.141794 3.93437-19.16036 10.141794-27.04342 45.635005-37.185215 77.18157-73.525451 94.651972-109.018661 20.838042-44.501546 31.268316-93.806993 31.268316-147.895881V291.51367c0.554454-19.146038 10.420044-29.011628 29.580403-29.578357 18.024855 0.566729 27.8884 10.43232 29.578358 29.578357v290.71984c0 50.152472-10.141794 100.570917-30.423337 151.277843-17.468356 47.891692-52.396883 96.34193-104.793766 145.358897z m260.296504-32.96032c0 17.458126-9.863544 26.198442-29.580404 26.198442-11.277299 0-20.005339-6.483628-26.198441-19.43861-25.353463-46.191504-51.84243-82.529694-79.440304-109.018661v-16.058693c2.811141-13.52171 11.541227-21.404771 26.198441-23.663505 12.386206 0 21.404771 4.517467 27.045467 13.52171 27.597874 26.488967 54.93182 65.073614 81.977287 115.782586v12.676731z m413.262257-547.636428h-174.9393v158.037675h131.837187c34.926482 0 52.396883 16.625423 52.396883 49.861946v323.68016c0 32.667748-17.470402 49.016967-52.396883 49.016967H540.823401c-33.250845 0-49.861946-16.349219-49.861946-49.016967V506.173123c0-33.236523 16.611101-49.861946 49.861946-49.861946h88.737118V163.054354c0-20.281542 9.851269-30.423337 29.578358-30.423337 20.283588 0 30.425383 10.141794 30.425383 30.423337v75.215408h174.9393c19.714813 0 29.578358 10.141794 29.578358 30.425383 0 19.727089-9.863544 29.578358-29.578358 29.578357z" p-id="1886" fill="#ffffff"></path><path d="M553.500132 535.751481v264.521398c0 12.965211 5.624328 19.436563 16.901626 19.436564h221.421331c12.954981 0 19.436563-6.471353 19.436563-19.436564v-264.521398c0-12.952935-6.483628-19.436563-19.436563-19.436564H570.401758c-11.275253 0-16.901626 6.483628-16.901626 19.436564z" p-id="1887" fill="#ffffff"></path></svg>